#N canvas 0 23 1280 729 12;
#X obj 313 328 dac~;
#X floatatom 313 152 5 0 0 0 - - -, f 5;
#X floatatom 355 152 5 0 0 0 - - -, f 5;
#X floatatom 397 152 5 0 0 0 - - -, f 5;
#X msg 313 1 92.5 123.47 185 233.08 311.13 369.99;
#X floatatom 440 152 5 0 0 0 - - -, f 5;
#X floatatom 482 152 5 0 0 0 - - -, f 5;
#X floatatom 525 152 5 0 0 0 - - -, f 5;
#X obj 313 119 unpack f f f f f f;
#X msg 326 24 103.83 138.59 174.61 246.94 277.18 369.99;
#X msg 339 47 103.83 138.59 164.81 246.94 277.18 369.99;
#X msg 353 70 92.5 123.47 185 233.08 277.18 369.99;
#X floatatom 839 272 5 0 0 0 - - -, f 5;
#X obj 313 -95 tgl 15 0 empty metro-t empty 17 7 0 10 -262144 -1 -1
0 1;
#X floatatom 82 283 0 0 0 0 - - -;
#X obj 82 195 cputime;
#X obj 82 55 loadbang;
#X obj 82 139 metro 1000;
#X msg 82 83 1;
#X floatatom 82 111 0 0 0 0 - - -;
#X obj 82 167 t b b;
#X obj 82 255 * 0.1;
#X obj 82 224 int;
#X text 127 111 <-- on/off;
#X text 28 311 CPU load in percent;
#X obj 839 162 vsl 15 100 0 50 0 0 empty vol-slider empty 0 -9 0 10
-262144 -1 -1 0 1;
#N canvas 0 23 1280 755 rnd-strings 0;
#X floatatom 88 172 5 0 0 0 - - -, f 5;
#X obj 31 86 random 50;
#X obj 31 129 - 25;
#X obj 31 27 inlet;
#X floatatom 188 172 5 0 0 0 - - -, f 5;
#X obj 131 86 random 50;
#X obj 131 129 - 25;
#X floatatom 288 172 5 0 0 0 - - -, f 5;
#X obj 231 86 random 50;
#X obj 231 129 - 25;
#X floatatom 388 172 5 0 0 0 - - -, f 5;
#X obj 331 86 random 50;
#X obj 331 129 - 25;
#X floatatom 488 172 5 0 0 0 - - -, f 5;
#X obj 431 86 random 50;
#X obj 431 129 - 25;
#X floatatom 588 172 5 0 0 0 - - -, f 5;
#X obj 531 86 random 50;
#X obj 531 129 - 25;
#X floatatom 635 49 5 0 0 0 - - -, f 5;
#X obj 635 91 / 2;
#X obj 531 171 v rnd6;
#X obj 431 171 v rnd5;
#X obj 331 171 v rnd4;
#X obj 231 171 v rnd3;
#X obj 131 171 v rnd2;
#X obj 31 171 v rnd1;
#X obj 635 27 inlet;
#X obj 664 91 v rndness;
#X connect 1 0 2 0;
#X connect 2 0 0 0;
#X connect 2 0 26 0;
#X connect 3 0 1 0;
#X connect 3 0 5 0;
#X connect 3 0 8 0;
#X connect 3 0 11 0;
#X connect 3 0 14 0;
#X connect 3 0 17 0;
#X connect 5 0 6 0;
#X connect 6 0 4 0;
#X connect 6 0 25 0;
#X connect 8 0 9 0;
#X connect 9 0 7 0;
#X connect 9 0 24 0;
#X connect 11 0 12 0;
#X connect 12 0 10 0;
#X connect 12 0 23 0;
#X connect 14 0 15 0;
#X connect 15 0 13 0;
#X connect 15 0 22 0;
#X connect 17 0 18 0;
#X connect 18 0 16 0;
#X connect 18 0 21 0;
#X connect 19 0 20 0;
#X connect 19 0 17 1;
#X connect 19 0 14 1;
#X connect 19 0 11 1;
#X connect 19 0 8 1;
#X connect 19 0 5 1;
#X connect 19 0 1 1;
#X connect 19 0 28 0;
#X connect 20 0 18 1;
#X connect 20 0 15 1;
#X connect 20 0 12 1;
#X connect 20 0 9 1;
#X connect 20 0 6 1;
#X connect 20 0 2 1;
#X connect 27 0 19 0;
#X restore 750 340 pd rnd-strings;
#X obj 567 177 hsl 128 15 0 127 0 0 empty empty empty -2 -8 0 10 -262144
-1 -1 0 1;
#X obj 609 197 hsl 128 15 0 127 0 0 empty empty empty -2 -8 0 10 -262144
-1 -1 0 1;
#X obj 652 217 hsl 128 15 0 127 0 0 empty empty empty -2 -8 0 10 -262144
-1 -1 0 1;
#X obj 800 95 route 0 1 2 3;
#X obj 854 -13 tgl 15 0 empty empty empty 17 7 0 10 -262144 -1 -1 0
93;
#X obj 897 -13 tgl 15 0 empty empty empty 17 7 0 10 -262144 -1 -1 0
93;
#X obj 854 32 +;
#X obj 897 7 * 2;
#X obj 897 32 +;
#N canvas 0 23 1280 755 g-metro 0;
#X obj 26 65 f 0;
#X obj 26 88 + 1;
#X floatatom 26 161 5 0 0 0 - - -, f 5;
#X obj 26 112 / 4;
#X obj 96 178 moses 2;
#X msg 96 70 1;
#X msg 167 71 2;
#X obj 26 136 % 5;
#X obj 167 178 moses 4;
#X obj 96 252 outlet;
#X obj 116 270 outlet;
#X obj 136 288 outlet;
#X obj 157 306 outlet;
#X obj 26 11 inlet;
#X obj 227 59 outlet;
#X obj 93 11 inlet;
#X obj 96 221 route 0 1 2 3 4;
#X obj 177 324 outlet;
#X obj 227 30 s strum-bang;
#X obj 26 41 metro 1200;
#X connect 0 0 1 0;
#X connect 1 0 0 1;
#X connect 1 0 3 0;
#X connect 2 0 4 0;
#X connect 3 0 7 0;
#X connect 4 0 5 0;
#X connect 4 0 16 0;
#X connect 4 1 8 0;
#X connect 5 0 1 1;
#X connect 6 0 1 1;
#X connect 7 0 2 0;
#X connect 8 0 6 0;
#X connect 8 0 16 0;
#X connect 8 1 5 0;
#X connect 8 1 16 0;
#X connect 13 0 19 0;
#X connect 15 0 19 1;
#X connect 16 0 9 0;
#X connect 16 1 10 0;
#X connect 16 2 11 0;
#X connect 16 3 12 0;
#X connect 16 4 17 0;
#X connect 19 0 0 0;
#X connect 19 0 14 0;
#X connect 19 0 18 0;
#X restore 313 -51 pd g-metro;
#X obj 836 69 f 0;
#X text 860 340 new random values each strum;
#X obj 694 237 hsl 128 15 0 127 0 0 empty empty empty -2 -8 0 10 -262144
-1 -1 0 1;
#X text 870 193 1-6) string length 7) decay 8) brightness 9) sensor
pos 10) excitation pos 11) volume, f 29;
#X obj 750 311 r strum-bang;
#X obj 855 311 hsl 128 15 0 200 0 0 empty rnd-slider empty -2 -8 0
10 -262144 -1 -1 0 1;
#X text 996 309 randomness/sloppiness;
#X text 333 -98 start metro for test pattern;
#X obj 675 33 r strum-bang;
#X obj 773 51 spigot;
#X obj 642 -81 tgl 15 0 empty empty empty 17 7 0 10 -262144 -1 -1 1
1;
#X obj 662 -82 loadbang;
#X text 606 -61 en/disable osc flow;
#X obj 620 -81 bng 15 250 50 0 empty empty empty 17 7 0 10 -262144
-1 -1;
#X obj 313 294 hip~ 5;
#X obj 684 294 hip~ 5;
#N canvas 0 23 1280 755 g-model2 0;
#X obj 53 99 wg, f 17;
#X obj 573 499 hsl 128 15 -1 1 0 0 empty empty empty -2 -8 0 10 -262144
-1 -1 0 1;
#X obj 113 129 wg, f 17;
#X obj 176 159 wg, f 17;
#X obj 239 189 wg, f 17;
#X obj 302 219 wg, f 17;
#X obj 365 249 wg, f 17;
#X obj 53 246 *~ 1;
#X obj 113 276 *~ 1;
#X obj 176 306 *~ 1;
#X obj 239 336 *~ 1;
#X obj 302 366 *~ 1;
#X obj 365 396 *~ 1;
#X floatatom 570 520 5 0 0 0 - - -, f 5;
#X floatatom 364 729 5 0 0 0 - - -, f 5;
#X obj 364 709 expr if($f1 > 0 \, $f1 * (500 + rnd6) \, 0);
#X obj 301 668 expr if($f1 > 0 \, $f1 * (400 + rnd5) \, abs($f1) *
(100 + rnd5));
#X obj 238 627 expr if($f1 > 0 \, $f1 * (300 + rnd4) \, abs($f1) *
(200 + rnd4));
#X obj 175 586 expr if($f1 > 0 \, $f1 * (200 + rnd3) \, abs($f1) *
(300 + rnd3));
#X obj 112 545 expr if($f1 > 0 \, $f1 * (100 + rnd2) \, abs($f1) *
(400 + rnd2));
#X obj 52 514 expr if($f1 > 0 \, 0 \, abs($f1 * (500 + rnd1)));
#X floatatom 78 200 5 0 0 0 - - -, f 5;
#X obj 138 254 expr 1 - abs(rnd2 / 75);
#X obj 201 284 expr 1 - abs(rnd3 / 75);
#X obj 264 314 expr 1 - abs(rnd4 / 75);
#X obj 327 344 expr 1 - abs(rnd5 / 75);
#N canvas 0 23 1280 755 g-osc 0;
#X obj 301 551 spigot;
#X obj 577 152 moses 5;
#X obj 637 152 moses -5;
#X text 374 652 strum accel. threshold (negative);
#X text 434 550 open gate at end of up/down strum;
#X floatatom 395 687 5 0 0 0 - - -, f 5;
#X floatatom 300 238 5 0 0 0 - - -, f 5;
#X floatatom 412 331 5 0 0 0 - - -, f 5;
#X text 705 152 phone's y axis location;
#X floatatom 415 595 5 0 0 0 - - -, f 5;
#X obj 301 735 spigot;
#X obj 395 720 tgl 15 0 empty empty empty 17 7 0 10 -262144 -1 -1 1
1;
#X obj 301 763 bng 15 250 50 0 empty empty empty 17 7 0 10 -262144
-1 -1;
#X obj 318 702 bng 15 250 50 0 empty empty empty 17 7 0 10 -262144
-1 -1;
#X obj 416 718 loadbang;
#X obj 352 847 outlet;
#X obj 247 40 mrpeach/udpreceive 9001;
#X obj 247 443 mrpeach/routeOSC /linearacceleration;
#X obj 310 145 unpack f f f;
#X floatatom 299 176 5 0 0 0 - - -, f 5;
#X floatatom 350 176 5 0 0 0 - - -, f 5;
#X floatatom 401 176 5 0 0 0 - - -, f 5;
#X obj 247 70 mrpeach/unpackOSC;
#X text 475 176 use tilt for side strum;
#X obj 449 687 s strum-accel;
#X text 550 687 strum acceleration;
#X text 455 778 refractory period for strum trigger;
#X text 610 388 y axis change threshold for strum detection;
#X text 458 332 change in phone's y axis on strum (+/- indicate direction)
;
#X text 245 11 192.168.43.14 - hotspot;
#X text 538 1063 tst;
#X obj 251 813 s strum-bang;
#X text 426 11 school ip: 193.157.212.217;
#X obj 310 485 unpack f f f;
#X floatatom 299 516 5 0 0 0 - - -, f 5;
#X floatatom 350 516 5 0 0 0 - - -, f 5;
#X floatatom 401 516 5 0 0 0 - - -, f 5;
#X obj 247 100 mrpeach/routeOSC /accelerometer;
#X obj 395 238 pipe 50;
#X text 548 239 this will average the last x number of changes to the
accelerometer (gives an average change);
#X obj 301 625 expr abs($f1);
#X obj 395 778 del 200;
#X obj 300 331 expr $f2 - $f1;
#X text 602 804 change > 0 --> down strum;
#X text 602 823 change < 0 --> up strum;
#X obj 395 215 zexy/mavg 3;
#X obj 301 653 moses 5;
#X obj 301 390 expr if(($f1 > 20) || ($f1 < -10) \, $f1 \, 0);
#X obj 352 813 expr if($f2 > 0 \, 10/$f1 \, -5/$f1);
#X connect 0 0 9 0;
#X connect 0 0 40 0;
#X connect 5 0 24 0;
#X connect 6 0 42 0;
#X connect 10 0 12 0;
#X connect 10 0 48 0;
#X connect 11 0 10 1;
#X connect 12 0 11 0;
#X connect 12 0 31 0;
#X connect 12 0 41 0;
#X connect 13 0 10 0;
#X connect 14 0 11 0;
#X connect 16 0 22 0;
#X connect 17 0 33 0;
#X connect 18 0 19 0;
#X connect 18 1 20 0;
#X connect 18 2 21 0;
#X connect 20 0 45 0;
#X connect 20 0 6 0;
#X connect 22 0 17 0;
#X connect 22 0 37 0;
#X connect 33 0 34 0;
#X connect 33 1 35 0;
#X connect 33 2 36 0;
#X connect 35 0 0 0;
#X connect 37 0 1 0;
#X connect 37 0 2 0;
#X connect 37 0 18 0;
#X connect 38 0 42 1;
#X connect 40 0 46 0;
#X connect 41 0 11 0;
#X connect 42 0 7 0;
#X connect 42 0 47 0;
#X connect 45 0 38 0;
#X connect 46 1 5 0;
#X connect 46 1 10 0;
#X connect 47 0 0 1;
#X connect 47 0 48 1;
#X connect 48 0 15 0;
#X restore 570 457 pd g-osc;
#X text 619 519 strum direction (+/-) and speed;
#X obj 390 374 expr 0.9 - abs(rnd6 / 60);
#X obj 52 37 inlet;
#X obj 113 37 inlet;
#X obj 176 37 inlet;
#X obj 239 37 inlet;
#X obj 302 37 inlet;
#X obj 365 37 inlet;
#X text 439 313 randomize amplitude of each string on strum;
#X text 694 673 randomize delays between strings on strum;
#X obj 51 931 outlet~;
#X obj 522 55 inlet;
#X obj 562 85 inlet;
#X obj 602 115 inlet;
#X text 573 55 decay;
#X obj 642 145 inlet;
#X obj 682 175 inlet;
#X text 651 114 sensor position;
#X text 691 145 excitation position;
#X text 731 175 volume;
#X text 611 86 brightness;
#X obj 173 931 outlet~;
#X obj 78 224 expr 0.9 - abs(rnd1 / 60);
#X text 569 433 osc message processing;
#X text 644 458 * must occur after the sound synthesis or strum direction
will be too late *;
#X text 545 992 down;
#X obj 53 370 delwrite~ str-del1 1500;
#X obj 113 390 delwrite~ str-del2 1500;
#X obj 176 410 delwrite~ str-del3 1500;
#X obj 239 430 delwrite~ str-del4 1500;
#X obj 302 450 delwrite~ str-del5 1500;
#X obj 365 470 delwrite~ str-del6 1500;
#X obj 301 839 linear_pan~;
#X obj 112 867 linear_pan~;
#X obj 52 839 linear_pan~;
#X obj 364 867 linear_pan~;
#X msg 198 867 0.45;
#X msg 138 839 0.4;
#X msg 387 839 0.55;
#X msg 450 867 0.65;
#X obj 52 695 delread4~ str-del1 0;
#X obj 112 715 delread4~ str-del2 100;
#X obj 175 735 delread4~ str-del3 200;
#X obj 238 755 delread4~ str-del4 300;
#X obj 301 775 delread4~ str-del5 400;
#X obj 364 795 delread4~ str-del6 500;
#X obj 627 552 r strum-bang;
#X connect 0 0 7 0;
#X connect 1 0 13 0;
#X connect 1 0 15 0;
#X connect 1 0 16 0;
#X connect 1 0 17 0;
#X connect 1 0 18 0;
#X connect 1 0 19 0;
#X connect 1 0 20 0;
#X connect 2 0 8 0;
#X connect 3 0 9 0;
#X connect 4 0 10 0;
#X connect 5 0 11 0;
#X connect 6 0 12 0;
#X connect 7 0 53 0;
#X connect 8 0 54 0;
#X connect 9 0 55 0;
#X connect 10 0 56 0;
#X connect 11 0 57 0;
#X connect 12 0 58 0;
#X connect 15 0 14 0;
#X connect 15 0 72 0;
#X connect 16 0 71 0;
#X connect 17 0 70 0;
#X connect 18 0 69 0;
#X connect 19 0 68 0;
#X connect 20 0 67 0;
#X connect 22 0 8 1;
#X connect 23 0 9 1;
#X connect 24 0 10 1;
#X connect 25 0 11 1;
#X connect 26 0 1 0;
#X connect 28 0 12 1;
#X connect 29 0 0 0;
#X connect 29 0 0 6;
#X connect 30 0 2 0;
#X connect 30 0 2 6;
#X connect 31 0 3 0;
#X connect 31 0 3 6;
#X connect 32 0 4 0;
#X connect 32 0 4 6;
#X connect 33 0 5 0;
#X connect 33 0 5 6;
#X connect 34 0 6 0;
#X connect 34 0 6 6;
#X connect 38 0 0 1;
#X connect 38 0 2 1;
#X connect 38 0 3 1;
#X connect 38 0 4 1;
#X connect 38 0 5 1;
#X connect 38 0 6 1;
#X connect 39 0 0 2;
#X connect 39 0 2 2;
#X connect 39 0 3 2;
#X connect 39 0 4 2;
#X connect 39 0 5 2;
#X connect 39 0 6 2;
#X connect 40 0 0 3;
#X connect 40 0 2 3;
#X connect 40 0 3 3;
#X connect 40 0 4 3;
#X connect 40 0 5 3;
#X connect 40 0 6 3;
#X connect 42 0 0 4;
#X connect 42 0 2 4;
#X connect 42 0 3 4;
#X connect 42 0 4 4;
#X connect 42 0 5 4;
#X connect 42 0 6 4;
#X connect 43 0 6 5;
#X connect 43 0 5 5;
#X connect 43 0 4 5;
#X connect 43 0 3 5;
#X connect 43 0 2 5;
#X connect 43 0 0 5;
#X connect 49 0 7 1;
#X connect 49 0 21 0;
#X connect 59 0 37 0;
#X connect 59 1 48 0;
#X connect 60 0 37 0;
#X connect 60 1 48 0;
#X connect 61 0 37 0;
#X connect 61 1 48 0;
#X connect 62 0 37 0;
#X connect 62 1 48 0;
#X connect 63 0 60 1;
#X connect 64 0 61 1;
#X connect 65 0 59 1;
#X connect 66 0 62 1;
#X connect 67 0 61 0;
#X connect 68 0 60 0;
#X connect 69 0 37 0;
#X connect 69 0 48 0;
#X connect 70 0 37 0;
#X connect 70 0 48 0;
#X connect 71 0 59 0;
#X connect 72 0 62 0;
#X connect 73 0 1 0;
#X restore 43 -78 pd g-model2;
#X f 22;
#N canvas 0 23 1280 729 g-model 0;
#X obj 62 161 bng 15 250 50 0 empty empty empty 17 7 0 10 -262144 -1
-1;
#X obj 62 181 bng 15 250 50 0 empty empty empty 17 7 0 10 -262144 -1
-1;
#X obj 62 201 bng 15 250 50 0 empty empty empty 17 7 0 10 -262144 -1
-1;
#X obj 62 221 bng 15 250 50 0 empty empty empty 17 7 0 10 -262144 -1
-1;
#X obj 62 241 bng 15 250 50 0 empty empty empty 17 7 0 10 -262144 -1
-1;
#X obj 62 141 bng 15 250 50 0 empty empty empty 17 7 0 10 -262144 -1
-1;
#X obj 193 293 pipe 200;
#X obj 256 293 pipe 300;
#X obj 319 293 pipe 400;
#X obj 382 293 pipe 500;
#X obj 81 293 pipe 0;
#X obj 130 293 pipe 100;
#X floatatom 441 273 5 0 0 0 - - -, f 5;
#X obj 372 234 expr if($f1 > 0 \, $f1 * (400 + rnd5) \, abs($f1) *
(100 + rnd5)), f 61;
#X obj 309 216 expr if($f1 > 0 \, $f1 * (300 + rnd4) \, abs($f1) *
(200 + rnd4)), f 61;
#X obj 246 198 expr if($f1 > 0 \, $f1 * (200 + rnd3) \, abs($f1) *
(300 + rnd3)), f 61;
#X obj 183 180 expr if($f1 > 0 \, $f1 * (100 + rnd2) \, abs($f1) *
(400 + rnd2)), f 61;
#X obj 120 162 expr if($f1 > 0 \, 0 \, abs($f1 * (500 + rnd1)));
#X obj 81 561 *~ 1;
#X obj 130 578 *~ 1;
#X obj 193 596 *~ 1;
#X obj 256 615 *~ 1;
#X obj 319 633 *~ 1;
#X obj 382 651 *~ 1;
#X obj 570 326 inlet;
#X obj 610 356 inlet;
#X obj 650 386 inlet;
#X text 619 326 decay;
#X obj 690 416 inlet;
#X obj 730 446 inlet;
#X text 698 386 sensor position;
#X text 738 415 excitation position;
#X text 778 446 volume;
#X text 659 357 brightness;
#X obj 619 95 hsl 128 15 -1 1 0 0 empty strum-slider empty -2 -8 0
10 -262144 -1 -1 0 1;
#X floatatom 616 116 5 0 0 0 - - -, f 5;
#N canvas 0 23 1280 729 g-osc 0;
#X obj 81 483 spigot;
#X text 153 615 strum accel. threshold (negative);
#X text 134 483 open gate at end of up/down strum;
#X floatatom 285 649 5 0 0 0 - - -, f 5;
#X floatatom 80 241 5 0 0 0 - - -, f 5;
#X floatatom 192 274 5 0 0 0 - - -, f 5;
#X floatatom 101 510 5 0 0 0 - - -, f 5;
#X obj 81 677 spigot;
#X obj 175 662 tgl 15 0 empty empty empty 17 7 0 10 -262144 -1 -1 1
1;
#X obj 81 705 bng 15 250 50 0 empty empty empty 17 7 0 10 -262144 -1
-1;
#X obj 196 660 loadbang;
#X obj 42 812 outlet;
#X obj 90 148 unpack f f f;
#X floatatom 79 179 5 0 0 0 - - -, f 5;
#X floatatom 130 179 5 0 0 0 - - -, f 5;
#X floatatom 181 179 5 0 0 0 - - -, f 5;
#X text 232 179 use tilt for side strum;
#X obj 339 649 s strum-accel;
#X text 442 649 strum acceleration;
#X text 278 721 refractory period for strum trigger;
#X text 377 312 y axis change threshold for strum detection;
#X text 238 275 change in phone's y axis on strum (+/- indicate direction)
;
#X text 25 21 192.168.43.14 - hotspot;
#X obj 101 747 s strum-bang;
#X text 206 21 school ip: 193.157.212.217;
#X obj 90 396 unpack f f f;
#X floatatom 81 428 5 0 0 0 - - -, f 5;
#X floatatom 130 428 5 0 0 0 - - -, f 5;
#X floatatom 181 428 5 0 0 0 - - -, f 5;
#X obj 81 587 expr abs($f1);
#X obj 175 720 del 200;
#X obj 80 274 expr $f2 - $f1;
#X text 290 770 change > 0 --> down strum;
#X text 290 789 change < 0 --> up strum;
#X obj 81 456 + \$1;
#X text 232 428 using x and y (for tilting and up/down accel);
#X floatatom 101 565 5 0 0 0 - - -, f 5;
#X floatatom 235 721 5 0 0 0 - - -, f 5;
#X obj 175 241 pipe 50;
#X text 469 687 make the refractory period dependent on the speed/length
of the strum (to strum quickly!), f 47;
#X text 238 225 provides a change to the accelerometer (average change
in 50 ms), f 38;
#X obj 81 615 moses 10;
#X obj 81 313 expr if(($f1 > 4) || ($f1 < -4) \, $f1 \, 0);
#X obj 235 695 expr abs($f1 * (500 + rndness));
#X obj 27 355 routeOSC /linearacceleration;
#X obj 27 110 routeOSC /gravity;
#X obj 27 80 unpackOSC;
#X obj 130 218 mavg 3;
#X obj 81 536 mavg 6;
#X obj 27 50 udpreceive 9999;
#X obj 42 778 expr if($f2 > 0 \, 12/$f1 \, -8/$f1);
#X connect 0 0 6 0;
#X connect 0 0 48 0;
#X connect 3 0 17 0;
#X connect 4 0 31 0;
#X connect 7 0 9 0;
#X connect 7 0 50 0;
#X connect 8 0 7 1;
#X connect 9 0 8 0;
#X connect 9 0 23 0;
#X connect 9 0 30 0;
#X connect 10 0 8 0;
#X connect 12 0 13 0;
#X connect 12 1 14 0;
#X connect 12 2 15 0;
#X connect 14 0 47 0;
#X connect 25 0 26 0;
#X connect 25 1 27 0;
#X connect 25 2 28 0;
#X connect 26 0 34 0;
#X connect 27 0 34 1;
#X connect 29 0 41 0;
#X connect 30 0 8 0;
#X connect 31 0 5 0;
#X connect 31 0 42 0;
#X connect 34 0 0 0;
#X connect 38 0 31 1;
#X connect 41 1 3 0;
#X connect 41 1 7 0;
#X connect 42 0 0 1;
#X connect 42 0 50 1;
#X connect 43 0 30 1;
#X connect 43 0 37 0;
#X connect 44 0 25 0;
#X connect 45 0 12 0;
#X connect 46 0 44 0;
#X connect 46 0 45 0;
#X connect 47 0 4 0;
#X connect 47 0 38 0;
#X connect 48 0 29 0;
#X connect 48 0 36 0;
#X connect 49 0 46 0;
#X connect 50 0 11 0;
#X connect 50 0 43 0;
#X restore 616 41 pd g-osc;
#X text 659 116 strum direction (+/-) and speed;
#X text 683 41 osc message processing;
#X obj 762 92 r strum-bang;
#X obj 81 47 inlet;
#X obj 130 47 inlet;
#X obj 193 47 inlet;
#X obj 256 47 inlet;
#X obj 319 47 inlet;
#X obj 382 47 inlet;
#X obj 81 798 outlet~;
#X obj 193 798 outlet~;
#X obj 319 716 linear_pan~;
#X obj 130 744 linear_pan~;
#X obj 81 716 linear_pan~;
#X obj 382 744 linear_pan~;
#X msg 216 744 0.45;
#X msg 167 716 0.4;
#X msg 405 716 0.55;
#X msg 468 744 0.65;
#X text 809 233 randomize delays between strings on strum;
#X obj 468 698 loadbang;
#X obj 216 698 loadbang;
#X obj 344 571 expr 1 - abs(rnd5 / rndness);
#X obj 281 553 expr 1 - abs(rnd4 / rndness);
#X obj 218 535 expr 1 - abs(rnd3 / rndness);
#X obj 155 517 expr 1 - abs(rnd2 / rndness);
#X floatatom 414 610 5 0 0 0 - - -, f 5;
#X floatatom 225 556 5 0 0 0 - - -, f 5;
#X obj 81 88 pipe \$1 \$2 \$3 \$4 \$5 \$6 1;
#X text 513 744 some light panning;
#X text 511 465 generate the strings;
#X obj 435 252 expr if($f1 > 0 \, $f1 * abs(500 + rnd6) \, 0);
#X obj 497 508 r strum-bang;
#X obj 407 589 expr 0.85 - abs(rnd6 / rndness);
#X obj 106 499 expr 0.85 - abs(rnd1 / rndness);
#X obj 762 67 spigot;
#X obj 857 93 tgl 15 0 empty metro-t empty 17 7 0 10 -262144 -1 -1
0 1;
#X obj 625 67 loadbang 0.5;
#X text 880 92 bang to recalc delays (for metro);
#X text 259 88 these calculatations (g-osc) cause sub-ms delay :(;
#X text 259 105 this delays until the calculations are finished;
#X obj 81 374 g-waveguide, f 17;
#X obj 130 392 g-waveguide, f 17;
#X obj 193 410 g-waveguide, f 17;
#X obj 256 428 g-waveguide, f 17;
#X obj 319 446 g-waveguide, f 17;
#X obj 382 464 g-waveguide, f 17;
#X text 636 589 slightly reduce amplitude by rnd factor;
#X connect 6 0 1 0;
#X connect 6 0 80 0;
#X connect 6 0 80 6;
#X connect 7 0 2 0;
#X connect 7 0 81 0;
#X connect 7 0 81 6;
#X connect 8 0 3 0;
#X connect 8 0 82 0;
#X connect 8 0 82 6;
#X connect 9 0 4 0;
#X connect 9 0 83 0;
#X connect 9 0 83 6;
#X connect 10 0 5 0;
#X connect 10 0 78 0;
#X connect 10 0 78 6;
#X connect 11 0 0 0;
#X connect 11 0 79 0;
#X connect 11 0 79 6;
#X connect 13 0 8 1;
#X connect 14 0 7 1;
#X connect 15 0 6 1;
#X connect 16 0 11 1;
#X connect 17 0 10 1;
#X connect 18 0 50 0;
#X connect 19 0 49 0;
#X connect 20 0 47 0;
#X connect 20 0 46 0;
#X connect 21 0 47 0;
#X connect 21 0 46 0;
#X connect 22 0 48 0;
#X connect 23 0 51 0;
#X connect 24 0 81 1;
#X connect 24 0 78 1;
#X connect 24 0 79 1;
#X connect 24 0 80 1;
#X connect 24 0 82 1;
#X connect 24 0 83 1;
#X connect 25 0 81 2;
#X connect 25 0 78 2;
#X connect 25 0 79 2;
#X connect 25 0 80 2;
#X connect 25 0 82 2;
#X connect 25 0 83 2;
#X connect 26 0 81 3;
#X connect 26 0 78 3;
#X connect 26 0 79 3;
#X connect 26 0 80 3;
#X connect 26 0 82 3;
#X connect 26 0 83 3;
#X connect 28 0 81 4;
#X connect 28 0 78 4;
#X connect 28 0 79 4;
#X connect 28 0 80 4;
#X connect 28 0 82 4;
#X connect 28 0 83 4;
#X connect 29 0 81 5;
#X connect 29 0 78 5;
#X connect 29 0 79 5;
#X connect 29 0 80 5;
#X connect 29 0 82 5;
#X connect 29 0 83 5;
#X connect 34 0 17 0;
#X connect 34 0 16 0;
#X connect 34 0 15 0;
#X connect 34 0 14 0;
#X connect 34 0 13 0;
#X connect 34 0 35 0;
#X connect 34 0 68 0;
#X connect 36 0 34 0;
#X connect 39 0 72 0;
#X connect 40 0 65 0;
#X connect 41 0 65 1;
#X connect 42 0 65 2;
#X connect 43 0 65 3;
#X connect 44 0 65 4;
#X connect 45 0 65 5;
#X connect 48 0 46 0;
#X connect 48 1 47 0;
#X connect 49 0 46 0;
#X connect 49 1 47 0;
#X connect 50 0 46 0;
#X connect 50 1 47 0;
#X connect 51 0 46 0;
#X connect 51 1 47 0;
#X connect 52 0 49 1;
#X connect 53 0 50 1;
#X connect 54 0 48 1;
#X connect 55 0 51 1;
#X connect 57 0 54 0;
#X connect 57 0 55 0;
#X connect 58 0 52 0;
#X connect 58 0 53 0;
#X connect 59 0 22 1;
#X connect 60 0 21 1;
#X connect 61 0 20 1;
#X connect 61 0 64 0;
#X connect 62 0 19 1;
#X connect 65 0 10 0;
#X connect 65 1 11 0;
#X connect 65 2 6 0;
#X connect 65 3 7 0;
#X connect 65 4 8 0;
#X connect 65 5 9 0;
#X connect 68 0 9 1;
#X connect 68 0 12 0;
#X connect 69 0 59 0;
#X connect 69 0 62 0;
#X connect 69 0 61 0;
#X connect 69 0 60 0;
#X connect 69 0 70 0;
#X connect 69 0 71 0;
#X connect 70 0 23 1;
#X connect 70 0 63 0;
#X connect 71 0 18 1;
#X connect 72 0 34 0;
#X connect 73 0 72 1;
#X connect 74 0 34 0;
#X connect 78 0 18 0;
#X connect 79 0 19 0;
#X connect 80 0 20 0;
#X connect 81 0 21 0;
#X connect 82 0 22 0;
#X connect 83 0 23 0;
#X restore 313 265 pd g-model;
#X f 61;
#X obj 100 400 cnv 15 400 500 empty empty empty 20 12 0 14 -228856
-66577 0;
#X obj 159 501 tgl 100 0 button1 l-bracket 1 5 15 0 20 -262144 -1 -1
0 93;
#X obj 341 501 tgl 100 0 button2 empty 2 5 15 0 20 -262144 -1 -1 0
93;
#X obj 239 637 hsl 200 30 0 50 0 0 vol-slider empty empty -2 -8 0 10
-262144 -1 -1 0 1;
#X text 41 -49 this model synthesizes the strings and writes to a delay
buffer \, then recieves osc messages - it creates more issues than
it solves, f 31;
#X obj 159 631 tgl 40 0 metro-t empty empty 17 7 0 10 -262144 -1 -1
0 1;
#X text 400 620 volume;
#X text 206 427 neither toggle = chord 1;
#X text 246 443 toggle 1 = chord 2;
#X text 246 475 toggle 2 = chord 4;
#X text 220 459 toggle 1 + 2 = chord 3;
#X text 43 -98 alt model;
#X text 157 610 test metro;
#X obj 405 -49 hsl 128 15 400 1200 0 0 empty metro-slider empty -2
-8 0 10 -262144 -1 -1 0 1;
#X obj 239 700 hsl 200 30 400 1200 0 0 metro-slider empty empty -2
-8 0 10 -262144 -1 -1 0 1;
#X text 243 405 OSC Chord Control;
#X text 398 729 slower;
#X text 234 729 faster;
#X obj 239 831 hsl 200 30 0 200 0 0 rnd-slider empty empty -2 -8 0
10 -262144 -1 -1 0 1;
#X text 301 814 randomness/sloppiness;
#X text 368 683 metro speed;
#X obj 239 766 hsl 200 30 -1 1 0 0 strum-slider empty empty -2 -8 0
10 -262144 -1 -1 0 1;
#X text 301 748 strum speed/direction;
#X text 410 795 down;
#X text 234 795 up;
#X obj 897 -50 r button2;
#X obj 854 -80 r button1;
#X connect 1 0 54 0;
#X connect 2 0 54 1;
#X connect 3 0 54 2;
#X connect 4 0 8 0;
#X connect 5 0 54 3;
#X connect 6 0 54 4;
#X connect 7 0 54 5;
#X connect 8 0 1 0;
#X connect 8 1 2 0;
#X connect 8 2 3 0;
#X connect 8 3 5 0;
#X connect 8 4 6 0;
#X connect 8 5 7 0;
#X connect 9 0 8 0;
#X connect 10 0 8 0;
#X connect 11 0 8 0;
#X connect 13 0 36 0;
#X connect 13 0 50 0;
#X connect 15 0 22 0;
#X connect 16 0 18 0;
#X connect 17 0 20 0;
#X connect 18 0 19 0;
#X connect 19 0 17 0;
#X connect 20 0 15 0;
#X connect 20 1 15 1;
#X connect 21 0 14 0;
#X connect 22 0 21 0;
#X connect 25 0 12 0;
#X connect 25 0 54 10;
#X connect 27 0 54 6;
#X connect 28 0 54 7;
#X connect 29 0 54 8;
#X connect 30 0 4 0;
#X connect 30 1 9 0;
#X connect 30 2 11 0;
#X connect 30 3 10 0;
#X connect 31 0 33 0;
#X connect 31 0 35 1;
#X connect 32 0 34 0;
#X connect 33 0 37 1;
#X connect 34 0 35 0;
#X connect 34 0 33 1;
#X connect 35 0 37 1;
#X connect 36 0 4 0;
#X connect 36 1 9 0;
#X connect 36 2 10 0;
#X connect 36 3 11 0;
#X connect 36 4 4 0;
#X connect 37 0 30 0;
#X connect 39 0 54 9;
#X connect 41 0 26 0;
#X connect 42 0 26 1;
#X connect 45 0 46 0;
#X connect 46 0 37 0;
#X connect 47 0 46 1;
#X connect 48 0 47 0;
#X connect 50 0 47 0;
#X connect 51 0 0 0;
#X connect 52 0 0 1;
#X connect 54 0 51 0;
#X connect 54 1 52 0;
#X connect 68 0 36 1;
#X connect 80 0 32 0;
#X connect 81 0 31 0;
#X coords 0 -1 1 1 400 500 1 100 400;
